<?xml version="1.0" encoding="UTF-8" standalone="no"?>
<!-- Generator: Adobe Illustrator 27.4.1, SVG Export Plug-In . SVG Version: 6.00 Build 0)  -->

<svg
   version="1.1"
   id="Layer_1"
   x="0px"
   y="0px"
   viewBox="0 0 200 200"
   style="enable-background:new 0 0 200 200;"
   xml:space="preserve"
   sodipodi:docname="pop-os-dark.svg"
   inkscape:version="1.3 (0e150ed6c4, 2023-07-21)"
   xmlns:inkscape="http://www.inkscape.org/namespaces/inkscape"
   xmlns:sodipodi="http://sodipodi.sourceforge.net/DTD/sodipodi-0.dtd"
   xmlns="http://www.w3.org/2000/svg"
   xmlns:svg="http://www.w3.org/2000/svg"><defs
   id="defs1" /><sodipodi:namedview
   id="namedview1"
   pagecolor="#ffffff"
   bordercolor="#000000"
   borderopacity="0.25"
   inkscape:showpageshadow="2"
   inkscape:pageopacity="0.0"
   inkscape:pagecheckerboard="0"
   inkscape:deskcolor="#d1d1d1"
   inkscape:zoom="2.5703332"
   inkscape:cx="92.011417"
   inkscape:cy="96.680072"
   inkscape:window-width="1541"
   inkscape:window-height="991"
   inkscape:window-x="26"
   inkscape:window-y="23"
   inkscape:window-maximized="0"
   inkscape:current-layer="g8" />&#10;<style
   type="text/css"
   id="style1">&#10;	.st0{fill:#48B9C7;}&#10;	.st1{fill:#FFFFFF;}&#10;</style>&#10;<g
   id="g18"
   transform="matrix(0.21141649,0,0,0.21141649,5,4.7885835)">&#10;	<g
   id="g8">&#10;		<path
   id="circle4"
   class="st0"
   d="M 449.39619 -22.603809 A 473 473 0 0 0 -23.603809 450.39619 A 473 473 0 0 0 449.39619 923.39619 A 473 473 0 0 0 922.39619 450.39619 A 473 473 0 0 0 449.39619 -22.603809 z M 356.40365 92.403555 C 399.40361 91.403556 417.40284 101.40236 442.40281 117.40234 C 480.40278 142.40232 507.39919 181.39563 517.39918 226.39559 C 527.39917 271.39554 524.40126 306.39792 512.40127 331.39789 L 512.40127 333.4026 C 488.40129 384.40255 448.39594 425.3983 392.396 445.39828 L 440.39811 570.40147 C 449.3981 593.40144 457.40316 617.40221 450.40317 639.40219 C 443.40317 661.40217 411.3958 668.40008 388.39582 644.4001 C 344.39587 597.40015 196.40306 301.39558 185.40307 279.39561 C 174.40308 257.39563 162.39975 239.39748 162.39975 217.3975 C 163.39975 184.39753 214.40085 150.40303 239.40082 133.40305 C 264.4008 116.40306 313.4037 93.403554 356.40365 92.403555 z M 317.14096 183.48377 C 286.03909 184.33603 303.05553 249.27934 309.39928 267.40432 C 316.39927 287.4043 335.40367 329.40106 356.40365 350.40104 C 361.40365 355.40103 366.40436 359.39686 372.40436 360.39686 C 378.40435 361.39686 390.39844 355.39859 395.39844 347.39859 C 400.39843 339.3986 401.40332 333.40224 401.40332 325.40225 C 403.70332 309.40226 402.99861 293.10012 399.39861 277.40014 C 390.39862 246.40017 371.39857 216.39887 346.39859 196.39889 C 341.3986 192.39889 335.40242 187.39609 328.40242 185.39609 C 324.08993 183.98985 320.35839 183.3956 317.14096 183.48377 z M 648.78602 263.41338 C 653.70789 263.33525 658.40325 263.65188 662.40324 264.40188 C 680.80323 267.10187 697.9031 275.50294 711.40309 288.40293 C 723.40308 299.40292 724.40117 311.4 720.40117 326.39998 C 716.40118 341.39997 702.4022 373.39846 691.40221 396.39844 L 663.40098 449.39846 C 609.40103 545.39836 598.39745 555.40285 583.39746 549.40285 C 565.39748 542.40286 571.40463 446.40231 588.40461 329.40242 C 593.40461 297.40245 601.40097 281.39995 610.40096 273.39996 C 617.15095 267.39997 634.02041 263.64775 648.78602 263.41338 z M 575.51721 591.85276 C 597.35117 592.27658 606.65287 619.39994 601.40287 640.39992 C 599.40287 649.39991 594.3999 657.39628 586.3999 662.39627 C 578.39991 667.39627 559.40284 667.39609 548.40285 658.3961 C 537.40286 649.3961 535.3978 634.40374 538.39779 622.40375 C 541.39779 610.40376 551.4013 597.39554 565.40129 593.39555 C 569.02629 592.27055 572.39807 591.79221 575.51721 591.85276 z M 236.39838 702.39803 L 662.40324 702.39803 C 682.80322 702.39803 699.40256 718.99737 699.40256 739.39735 L 699.40256 742.39979 C 699.40256 762.79977 682.80322 779.3991 662.40324 779.3991 L 236.39838 779.3991 C 215.9984 779.3991 199.39906 762.79977 199.39906 742.39979 L 199.39906 739.39735 C 199.39906 718.89737 215.8984 702.39803 236.39838 702.39803 z "
   style="opacity:0.6;fill:#9d9d9d;fill-opacity:1" />&#10;		&#10;	</g>&#10;	&#10;	<g
   id="g16">&#10;		&#10;		&#10;	</g>&#10;</g>&#10;</svg>
